<svg width="30" height="32" fill="none" xmlns="http://www.w3.org/2000/svg"><path fill-rule="evenodd" clip-rule="evenodd" d="M9.065 31.996a.743.743 0 01-.438-.155l-.957-.807a.695.695 0 01-.074-.976l.23-.274-.134-.045a7.62 7.62 0 01-2.38-1.384l-.987-.828-.787-.74a6.854 6.854 0 01-.912-1.243l-.193-.34-.26.31a.742.742 0 01-.54.244.661.661 0 01-.446-.17l-.935-.792a.689.689 0 01-.089-.977l.49-.577-.111-.23a.54.54 0 01.089-.554l5.289-6.253a.55.55 0 01.578-.163c3.123.999 5.697.125 8.011-2.605l3.917-4.633-1.684-1.428-.26-.133a3.435 3.435 0 00-2.069-.081.543.543 0 01-.63-.582.54.54 0 01.126-.3L19.1.19a.55.55 0 01.646-.14 24.909 24.909 0 0110.162 8.577.532.532 0 01-.037.644l-5.185 6.082a.55.55 0 01-.834-.01.534.534 0 01-.116-.396 2.955 2.955 0 00-.541-2.028l-.2-.281-1.484-1.273-3.924 4.632c-2.307 2.724-2.745 5.41-1.239 8.31a.525.525 0 01-.067.593l-5.296 6.253a.558.558 0 01-.386.192h-.148l-.312-.096h-.052l-.452.54a.698.698 0 01-.571.207zm-.037-1.228l.133-.17-.052-.045-.185-.229-.06-.096-.2.237.364.303zm1.35-.6l4.836-5.712-.4-.903c-1.024-2.886-.305-5.632 1.92-8.259l3.925-4.632-1.402-1.184-3.924 4.632c-2.226 2.627-4.822 3.79-7.84 3.264l-.965-.237L1.69 22.85v.044c.068.095.148.18.238.252.206.155.44.27.69.34a.548.548 0 01.34.326c.31.816.768 1.569 1.35 2.22l.683.659.987.828a6.928 6.928 0 003.197 1.517.528.528 0 01.378.281c.11.234.264.445.453.622.086.075.18.14.282.192l.089.038zm-1.484-2.5a4.539 4.539 0 01-2.9-1.074 4.578 4.578 0 01-1.016-5.81 4.602 4.602 0 015.565-1.991 4.59 4.59 0 012.398 2.033 4.571 4.571 0 01-1.078 5.8 4.598 4.598 0 01-2.969 1.041zm0-1.074a3.5 3.5 0 002.254-.799 3.485 3.485 0 00.81-4.41 3.502 3.502 0 00-6.055-.03 3.478 3.478 0 00.766 4.418 3.484 3.484 0 002.262.821h-.037zM1.558 24.5l.178-.207-.252-.14-.156-.112-.126.156.356.303zm11.869-4.159a.536.536 0 01-.438-.244 3.907 3.907 0 00-1.773-1.48.54.54 0 01.423-.992 4.966 4.966 0 012.225 1.895.539.539 0 01-.156.74.559.559 0 01-.23.081h-.051zm11.223-6.66l1.876-2.22-.875-1.088a29.024 29.024 0 00-2.477-2.568l-.55-.473.142.222a1.411 1.411 0 01-.178 1.539 1.395 1.395 0 01-1.09.496 1.344 1.344 0 01-.891-.333 1.398 1.398 0 011.32-2.405l.253.103-.816-.658a30.269 30.269 0 00-2.968-1.976l-1.016-.577-1.884 2.22h.104c.58.03 1.143.202 1.64.503l.066.044 6.342 5.35a.382.382 0 01.074.082c.384.468.674 1.006.854 1.584l.074.155zm2.581-3.049l.23-.266-.994-1.206a32.053 32.053 0 00-1.276-1.37.547.547 0 010-.74.542.542 0 01.742 0c.453.46.89.933 1.32 1.414l.883 1.08.534-.621-.742-1a23.495 23.495 0 00-7.321-6.127l-1.09-.562-.193.237 1.172.673c.549.333 1.09.688 1.624 1.051a.547.547 0 01.134.74.57.57 0 01-.453.23.587.587 0 01-.304-.097 31.494 31.494 0 00-1.565-1.021l-1.32-.74-.527.622.86.488A29.572 29.572 0 0126.43 9.7l.801.932zm-5.69-2.116a.341.341 0 00.223-.111.323.323 0 00-.044-.46.319.319 0 00-.46.038.325.325 0 00.037.459.335.335 0 00.296.044l-.051.03z" fill="#FDCE6D"/></svg>