<svg width="29" height="29" fill="none" xmlns="http://www.w3.org/2000/svg"><path fill-rule="evenodd" clip-rule="evenodd" d="M14.5 29A14.5 14.5 0 1129 14.5 14.508 14.508 0 0114.5 29zm-.368-1.239l.912-1.54a.596.596 0 111.03.602l-.536.904h.327c.441-.041.88-.108 1.314-.2l.653-.168.419-1.75a.593.593 0 01.72-.435.586.586 0 01.435.712l-.251 1.055.519-.185c.393-.167.778-.36 1.155-.56l.243-.151-.084-1.909a.595.595 0 011.189-.05l.059 1.214.711-.536c.33-.262.646-.541.946-.837l.469-.52-.167-.05a.628.628 0 01-.227-.301l-.544-1.674a.586.586 0 01.377-.754.603.603 0 01.754.377l.51 1.565.452-.602c.235-.352.46-.72.662-1.097l.217-.452h-.067a.595.595 0 01-.217-.193l-.98-1.565a.595.595 0 01.988-.653l.837 1.205.285-.77c.125-.41.234-.837.326-1.272h-.117l-1.381-1.214a.603.603 0 01-.05-.838.595.595 0 01.837-.05l.912.837.067-1.314-.067-1.272-1.615-.712a.603.603 0 01-.31-.787.595.595 0 01.787-.301l.937.41a18.75 18.75 0 00-.326-1.273l-.419-1.121-1.758-.176a.595.595 0 11.117-1.18l1.055.1c-.2-.377-.427-.745-.661-1.097l-.603-.837-1.624.31h-.117a.603.603 0 01-.578-.486.596.596 0 01.477-.695l.938-.176-.117-.125c-.3-.296-.616-.576-.946-.837l-.88-.662-1.464.77a.595.595 0 01-.804-.251.603.603 0 01.251-.837l.837-.444-.075-.041c-.375-.208-.76-.395-1.155-.561l-.896-.327-1.24 1.189a.577.577 0 01-.426.159.536.536 0 01-.41-.184.577.577 0 010-.837l.728-.704-.268-.075c-.435-.084-.837-.15-1.314-.2l-1.281-.06-.837 1.54a.594.594 0 11-1.038-.577l.493-.904c-.443.05-.887.117-1.314.201l-.837.218-.368 1.624a.612.612 0 01-.595.469h-.125a.594.594 0 01-.444-.72l.21-.913-.327.117c-.398.167-.786.354-1.164.561l-.402.243.084 1.833a.595.595 0 01-1.189.05l-.05-1.113-.561.419c-.328.261-.64.54-.938.837l-.217.234.552 1.625a.603.603 0 01-.377.753.435.435 0 01-.175 0 .594.594 0 01-.578-.402l-.327-.954-.502.678c-.243.352-.46.72-.67 1.097l-.167.343.92 1.272a.603.603 0 01-.133.838.586.586 0 01-.327.108.578.578 0 01-.502-.242l-.51-.712-.285.77a15.72 15.72 0 00-.327 1.273v.117l1.264.988a.595.595 0 01-.351 1.063.561.561 0 01-.385-.126l-.72-.569-.059 1.206.042.954 1.607.67a.594.594 0 01.101 1.043.603.603 0 01-.327.104.593.593 0 01-.234-.05l-.98-.402.059.351c.092.436.2.837.327 1.273l.234.645 1.733.184a.595.595 0 11-.067 1.188h-.059l-1.071-.117.234.486c.21.377.427.745.67 1.096l.594.838 1.725-.335a.592.592 0 01.703.469.603.603 0 01-.477.703l-1.047.2.126.135c.297.296.61.575.938.837l.67.502 1.481-.762a.596.596 0 01.837.26.586.586 0 01-.26.795l-.836.452.293.184c.376.202.77.394 1.163.562l1.164.426.075-.108 1.315-1.214a.607.607 0 01.837.879l-.837.787 1.306.2.762.009zm.368-3.55a9.71 9.71 0 11.016-19.421 9.71 9.71 0 01-.016 19.42zm0-1.214a8.43 8.43 0 001.298-.1h.175v-.067c.235-1.59-.142-3.399-1.841-5.61l-.05-.1h-.277l-.084.1c-1.59 1.315-2.871 2.638-3.415 4.254l-.11.41.269.159a8.371 8.371 0 004.035.954zm2.712-.452l.972-.385c.37-.18.727-.384 1.071-.61l.477-.36-.184-.11a9.4 9.4 0 01-2.963-3.348l-.57-1.097h-.05a2.393 2.393 0 01-.351.2l-.185.076.293.41a8.264 8.264 0 011.524 4.89l-.034.334zM9.125 21.08v-.075a9.368 9.368 0 012.453-3.608l1.047-.93-.176-.159-.176-.192v-.067l-.402.477a8.28 8.28 0 01-4.353 2.704 8.65 8.65 0 001.674 1.808l-.067.042zm11.553-.753l.377-.419a8.422 8.422 0 001.808-3.901l.067-.502-.175-.05a5.902 5.902 0 00-2.512-.587 8.82 8.82 0 00-2.444.344l-.838.276-.058.117.77 1.507a8.372 8.372 0 002.562 2.955l.443.26zM6.815 18.1l1.013-.226a8.053 8.053 0 003.759-2.939l.092-.075-1.432-.712a7.844 7.844 0 00-3.55-.795l-.619.075v.201c-.032.278-.05.558-.05.838a8.514 8.514 0 00.67 3.348l.117.285zm7.61-2.202a1.54 1.54 0 10-.017-3.08 1.54 1.54 0 00.017 3.08zm8.564-1.674v-.603a9.088 9.088 0 00-.335-1.674l-.226-.611-.184.175a9.611 9.611 0 01-4.119 1.8l-1.055.176.084.293.042.335.31-.1a9.856 9.856 0 012.787-.386 6.95 6.95 0 012.344.419l.352.176zm-11.193-.678l.084-.268.125-.218-.485-.167A8.238 8.238 0 017.384 9.87l-.15.218a8.806 8.806 0 00-.838 1.875l-.05.201h.293a7.474 7.474 0 012.511.31c.55.155 1.087.351 1.608.586l1.038.486zm4.613-1.164l.586-.092a10.046 10.046 0 003.993-1.373l.837-.712-.276-.46a8.506 8.506 0 00-2.997-2.721l-.678-.327v.076a.65.65 0 01-.134.2 4.563 4.563 0 00-1.14 2.036c-.234.95-.31 1.93-.226 2.905l.034.469zm-3.533-.318l.427-.235.109-1.398c.02-.52.006-1.04-.042-1.557a7.536 7.536 0 00-.561-2.21l-.218-.444-.61.16a8.456 8.456 0 00-3.484 2.109l-.31.343.578.837a7.484 7.484 0 003.182 2.085l.929.31zm2.269-.369v-.268a9.305 9.305 0 01.293-2.762 5.988 5.988 0 01.987-2.035l.293-.334-.485-.126a8.288 8.288 0 00-1.674-.176h-.645l.075.16c.347.815.564 1.679.645 2.561.057.573.077 1.15.059 1.725l-.092 1.13.435.042.109.083z" fill="#FDCE6D"/></svg>