<svg width="24" height="31" fill="none" xmlns="http://www.w3.org/2000/svg"><path fill-rule="evenodd" clip-rule="evenodd" d="M9.392 31a.546.546 0 01-.545-.542.54.54 0 01.545-.535h5.388a.546.546 0 01.545.535.54.54 0 01-.545.542H9.392zm0-1.782a.546.546 0 01-.545-.543.54.54 0 01.545-.542h5.388a.546.546 0 01.545.542.54.54 0 01-.545.543H9.392zm-.597-1.857a.546.546 0 01-.545-.542v-3.535l-.373-.127A11.985 11.985 0 011.6 17.9 11.893 11.893 0 01.184 9.86 11.93 11.93 0 014.29 2.79 12.035 12.035 0 0112 0c2.82 0 5.549.988 7.71 2.79a11.93 11.93 0 014.106 7.069c.492 2.762-.01 5.61-1.416 8.041a11.985 11.985 0 01-6.277 5.257l-.209.075v3.587a.54.54 0 01-.545.542H8.795zm6.03-1.084v-2.733l-.41.096a12.047 12.047 0 01-4.837 0l-.246-.06v2.697h5.493zM11.996 22.8c2.16.001 4.272-.635 6.069-1.828a10.877 10.877 0 004.024-4.876 10.817 10.817 0 00.623-6.28 10.849 10.849 0 00-2.988-5.564 10.934 10.934 0 00-5.592-2.974 10.967 10.967 0 00-6.31.62 10.907 10.907 0 00-4.9 4.005 10.828 10.828 0 001.362 13.715 10.945 10.945 0 007.712 3.182zm0-1.381a9.556 9.556 0 01-5.282-1.605 9.487 9.487 0 01-3.5-4.253 9.434 9.434 0 01-.538-5.47A9.462 9.462 0 015.28 5.244l.097-.09V5.11l.104-.074.448-.408a9.49 9.49 0 016.052-2.162h.978a9.537 9.537 0 016.293 3.246 9.447 9.447 0 01-.676 13.077 9.548 9.548 0 01-6.595 2.586l.015.044zm0-1.085a8.391 8.391 0 005.366-1.916l.112-.104-1.269-1.144a.548.548 0 01-.142-.59.547.547 0 01.706-.323.55.55 0 01.183.111l1.32 1.196.254-.282a8.356 8.356 0 001.896-4.59v-.141h-1.665a.548.548 0 01-.552-.535.548.548 0 01.538-.55h1.686v-.393a8.313 8.313 0 00-1.88-4.456l-.142-.156-1.045 1.144a.53.53 0 01-.711.078.542.542 0 01-.088-.806l1.082-1.18-.246-.216a8.349 8.349 0 00-4.477-1.88h-.165v1.486a.541.541 0 01-.54.479.546.546 0 01-.542-.479V3.603h-.477A8.394 8.394 0 006.72 5.482l1.097.987a.542.542 0 11-.731.803l-1.15-1.04-.335.371a8.279 8.279 0 00-1.754 3.647l-.127.824h1.575a.546.546 0 01.48.539.54.54 0 01-.48.538H3.698v.646a8.293 8.293 0 001.395 3.84l.47.623 1.008-1.18a.554.554 0 01.746-.037.541.541 0 010 .742l-1.164 1.27.41.372a8.406 8.406 0 005.433 1.908zM5.72 14.483a.546.546 0 01-.49-.468.54.54 0 01.348-.58l4.993-1.752a1.43 1.43 0 011.025-1.21 1.448 1.448 0 011.52.467l2.507-.876a.547.547 0 01.72.536.533.533 0 01-.362.482l-2.544.89a1.43 1.43 0 01-1.028 1.219 1.446 1.446 0 01-1.525-.476l-4.947 1.738a.75.75 0 01-.217.03zm6.284-2.31a.36.36 0 00.336-.215.355.355 0 00-.256-.49.36.36 0 00-.406.485.351.351 0 00.326.22z" fill="#FDCE6D"/></svg>