<svg width="66" height="65" fill="none" xmlns="http://www.w3.org/2000/svg"><g clip-path="url(#clip0_267_525)"><path d="M64.38 53.793H1.62a1.12 1.12 0 01-1.12-1.12V12.326c0-.618.502-1.12 1.12-1.12h62.76c.619 0 1.12.502 1.12 1.12v40.345c0 .62-.501 1.12-1.12 1.12z" fill="#41479B"/><path d="M65.5 12.328a1.12 1.12 0 00-1.12-1.121h-5.014L38.604 24.809V11.207H27.397v13.602L6.635 11.207H1.621a1.12 1.12 0 00-1.12 1.12v2.899l17.812 11.67H.501v11.207h17.812L.501 49.773v2.9c0 .618.502 1.12 1.12 1.12h5.014L27.397 40.19v13.603h11.207V40.19l20.762 13.603h5.014a1.12 1.12 0 001.12-1.12v-2.9l-17.812-11.67h17.813V26.896H47.688L65.5 15.226v-2.899z" fill="#F5F5F5"/><path d="M65.5 29.138H36.364V11.207H29.64v17.93H.5v6.725h29.137v17.93h6.725v-17.93H65.5v-6.724z" fill="#FF4B55"/><path d="M23.22 38.103L.532 52.83c.08.542.526.964 1.089.964h1.543l24.171-15.69h-4.117zm21.256 0H40.36L64.495 53.77a1.11 1.11 0 001.006-1.098v-.921L44.476 38.103zM.501 13.565L21.04 26.897h4.117L1.154 11.317c-.383.177-.653.56-.653 1.01v1.238zm42.221 13.332l22.74-14.762c-.094-.523-.53-.928-1.081-.928h-1.606l-24.17 15.69h4.117z" fill="#FF4B55"/></g><defs><clipPath id="clip0_267_525"><path fill="#fff" transform="translate(.5)" d="M0 0h65v65H0z"/></clipPath></defs></svg>