<svg width="66" height="65" fill="none" xmlns="http://www.w3.org/2000/svg"><g clip-path="url(#clip0_245_4680)"><path d="M64.38 53.793H1.62a1.12 1.12 0 01-1.12-1.12V12.328c0-.62.501-1.121 1.12-1.121h62.76c.619 0 1.12.502 1.12 1.12v40.346a1.12 1.12 0 01-1.12 1.12z" fill="#FF4B55"/><path d="M11.292 17.867l1.068 3.203 3.377.026a.455.455 0 01.267.822l-2.717 2.006 1.019 3.22a.455.455 0 01-.699.507l-2.747-1.964-2.747 1.964a.455.455 0 01-.699-.508l1.019-3.22-2.717-2.005a.455.455 0 01.267-.822l3.377-.026 1.069-3.203a.455.455 0 01.863 0zm12.262.789l.767 1.045 1.236-.387c.16-.05.292.133.194.269l-.757 1.051.75 1.056a.175.175 0 01-.196.268l-1.234-.395-.773 1.04a.175.175 0 01-.314-.104l-.006-1.296-1.228-.413a.175.175 0 01.001-.332l1.23-.405.015-1.296a.175.175 0 01.315-.1zm-4.664-3.114l1.288.14.55-1.173a.175.175 0 01.328.038l.265 1.268 1.286.16c.166.02.21.241.065.325l-1.124.643.245 1.272a.175.175 0 01-.289.163l-.96-.87-1.134.626a.175.175 0 01-.243-.225l.53-1.181-.945-.886c-.123-.114-.029-.318.138-.3zm2.036 12.555l-.766 1.045-1.237-.387a.175.175 0 00-.193.268l.757 1.052-.75 1.056a.175.175 0 00.195.267l1.234-.395.773 1.04c.1.135.314.064.315-.103l.005-1.296 1.228-.414a.175.175 0 00-.001-.331l-1.23-.406-.015-1.295a.175.175 0 00-.315-.101zm4.664-2.927l-1.288.14-.549-1.173a.175.175 0 00-.329.038l-.265 1.268-1.285.16a.175.175 0 00-.066.325l1.125.644-.245 1.272a.175.175 0 00.288.162l.96-.87 1.134.626a.175.175 0 00.243-.224l-.53-1.182.945-.885a.174.174 0 00-.138-.3z" fill="#FFE15A"/></g><defs><clipPath id="clip0_245_4680"><path fill="#fff" transform="translate(.5)" d="M0 0h65v65H0z"/></clipPath></defs></svg>