<svg width="66" height="65" fill="none" xmlns="http://www.w3.org/2000/svg"><g clip-path="url(#clip0_245_4688)"><path d="M64.381 53.793H1.623a1.12 1.12 0 01-1.121-1.12V12.328c0-.62.502-1.121 1.12-1.121h62.76c.618 0 1.12.502 1.12 1.12v40.346a1.12 1.12 0 01-1.12 1.12z" fill="#F5F5F5"/><path d="M39.223 23.173c-5.15-3.433-12.105-2.03-15.535 3.111-1.721 2.566-1.022 6.053 1.553 7.77a5.597 5.597 0 007.764-1.556 5.599 5.599 0 119.318 6.213c3.433-5.15 2.045-12.105-3.1-15.538z" fill="#FF4B55"/><path d="M23.688 26.284c-1.721 2.566-1.022 6.053 1.553 7.77a5.597 5.597 0 007.764-1.556 5.598 5.598 0 119.318 6.213c-3.428 5.158-10.381 6.544-15.531 3.111-5.145-3.433-6.537-10.388-3.104-15.538z" fill="#41479B"/><path d="M44.927 18.94L46.962 22a.56.56 0 01-.154.776l-.517.346a.56.56 0 01-.778-.155l-2.038-3.059a.56.56 0 01.155-.777l.52-.346a.56.56 0 01.777.155zm3.141 4.718l2.043 3.058a.56.56 0 01-.157.779l-.519.342a.56.56 0 01-.775-.156l-2.04-3.055a.56.56 0 01.154-.777l.517-.346a.56.56 0 01.777.155zm-.961-6.172l5.183 7.779a.56.56 0 01-.155.777l-.521.347a.56.56 0 01-.777-.156l-5.186-7.778a.56.56 0 01.156-.777l.523-.348a.56.56 0 01.777.156zm2.173-1.452l2.04 3.065a.56.56 0 01-.157.778l-.518.343a.56.56 0 01-.776-.157l-2.041-3.061a.56.56 0 01.155-.777l.52-.347a.56.56 0 01.778.155zm3.144 4.727l2.037 3.06a.56.56 0 01-.155.776l-.518.346a.56.56 0 01-.777-.156l-2.037-3.059a.56.56 0 01.155-.776l.517-.346a.56.56 0 01.778.155zM17.353 37.322l5.182 7.77a.56.56 0 01-.155.778l-.519.346a.56.56 0 01-.777-.155l-5.183-7.77a.56.56 0 01.155-.777l.52-.347a.56.56 0 01.777.155zm-2.175 1.454l2.034 3.052a.56.56 0 01-.154.776l-.516.346a.56.56 0 01-.778-.155l-2.037-3.051a.56.56 0 01.155-.777l.518-.347a.56.56 0 01.778.156zm3.144 4.719l2.037 3.06a.56.56 0 01-.155.776l-.518.346a.56.56 0 01-.778-.155l-2.038-3.059a.56.56 0 01.155-.777l.52-.346a.56.56 0 01.777.155zm-5.32-3.266l5.179 7.77a.56.56 0 01-.155.777l-.517.346a.56.56 0 01-.778-.154l-5.182-7.77a.56.56 0 01.155-.778l.52-.347a.56.56 0 01.777.156zm2.901-13.512l5.182-7.777a.56.56 0 01.777-.155l.519.346a.56.56 0 01.155.777l-5.184 7.772a.56.56 0 01-.775.157l-.517-.343a.56.56 0 01-.157-.777zm-2.177-1.452l5.183-7.778a.56.56 0 01.777-.155l.518.346a.56.56 0 01.155.776l-5.182 7.779a.56.56 0 01-.777.155l-.52-.346a.56.56 0 01-.154-.777zm-2.179-1.445l5.184-7.786a.56.56 0 01.778-.156l.517.346a.56.56 0 01.155.777l-5.18 7.787a.56.56 0 01-.777.156l-.52-.347a.56.56 0 01-.157-.777zm31.929 21.273l2.038-3.052a.56.56 0 01.777-.154l.516.345a.56.56 0 01.155.777l-2.035 3.052a.56.56 0 01-.777.155l-.519-.346a.56.56 0 01-.155-.777zm3.142-4.703l2.041-3.067a.56.56 0 01.777-.156l.52.347a.56.56 0 01.156.777l-2.045 3.062a.56.56 0 01-.776.156l-.515-.342a.56.56 0 01-.158-.778zm-.967 6.164l2.039-3.06a.56.56 0 01.777-.155l.521.347a.56.56 0 01.156.777l-2.038 3.06a.56.56 0 01-.776.156l-.523-.348a.56.56 0 01-.156-.777zm3.146-4.727l2.04-3.053a.56.56 0 01.777-.154l.52.347a.56.56 0 01.156.777l-2.04 3.052a.56.56 0 01-.776.155l-.521-.347a.56.56 0 01-.156-.777zm-.969 6.172l2.041-3.054a.56.56 0 01.775-.156l.519.343a.56.56 0 01.157.778l-2.04 3.058a.56.56 0 01-.776.155l-.52-.347a.56.56 0 01-.156-.777zm3.146-4.711l2.036-3.058a.56.56 0 01.778-.155l.517.345a.56.56 0 01.154.777l-2.037 3.053a.56.56 0 01-.776.157l-.515-.342a.56.56 0 01-.157-.777z" fill="#464655"/></g><defs><clipPath id="clip0_245_4688"><path fill="#fff" transform="translate(.5)" d="M0 0h65v65H0z"/></clipPath></defs></svg>