<svg width="70" height="74" fill="none" xmlns="http://www.w3.org/2000/svg"><path d="M53.324 49.972a24.5 24.5 0 110-34.648" stroke="#FDCE6D"/><g filter="url(#filter0_d_71_268)" stroke="#FDCE6D" stroke-miterlimit="10"><path d="M48.263 33v3.684h-8.842V28.58h6.632m2.21 12.525h-8.842v8.106h8.842v-8.106z"/><path d="M41.632 32.263l2.21 2.21L49 28.58m-.737-7.37v3.685h-8.842v-8.106h6.632"/><path d="M41.632 20.474l2.21 2.21L49 16.79M37.21 42.579H25.422a2.21 2.21 0 01-2.21-2.21v-4.422a2.454 2.454 0 01.125-.92l.737-1.157a.735.735 0 00-.435-1.12l-1.901-.487a.737.737 0 01-.737-.737v-1.473a.737.737 0 01.737-.737h3.286a.737.737 0 01.62.331l.972 1.474c.708.604 1.57 1 2.49 1.142h8.106"/><path d="M37.21 24.895c-2.438.02-4.871.225-7.28.611a2.946 2.946 0 00-1.561.863c-.34.397-2.108 4.207-2.108 4.207m-.84 4.634a5.04 5.04 0 003.56 1.474h1.598m-6.632 5.158v2.947a.737.737 0 00.737.737h5.158a.737.737 0 00.737-.737v-2.21m6.631-2.947h-6.63"/></g><defs><filter id="filter0_d_71_268" x=".5" y=".289" width="68.876" height="73.421" filterUnits="userSpaceOnUse" color-interpolation-filters="sRGB"><feFlood flood-opacity="0" result="BackgroundImageFix"/><feColorMatrix in="SourceAlpha" values="0 0 0 0 0 0 0 0 0 0 0 0 0 0 0 0 0 0 127 0" result="hardAlpha"/><feOffset dy="4"/><feGaussianBlur stdDeviation="10"/><feComposite in2="hardAlpha" operator="out"/><feColorMatrix values="0 0 0 0 0.658824 0 0 0 0 0.968627 0 0 0 0 1 0 0 0 1 0"/><feBlend in2="BackgroundImageFix" result="effect1_dropShadow_71_268"/><feBlend in="SourceGraphic" in2="effect1_dropShadow_71_268" result="shape"/></filter></defs></svg>