<svg width="67" height="66" fill="none" xmlns="http://www.w3.org/2000/svg"><path d="M51.324 45.972a24.5 24.5 0 110-34.648" stroke="#FDCE6D"/><path d="M28.304 37.793a.613.613 0 01-.576-.582v-.117a.282.282 0 00-.196-.269 2.315 2.315 0 01-1.488-1.366.612.612 0 01.337-.741.612.612 0 01.208-.043.612.612 0 01.539.374 1.286 1.286 0 001.978.41 1.01 1.01 0 00.343-.753c0-.613-.851-1.048-1.353-1.225-1.838-.717-2.089-1.764-2.089-2.328a2.154 2.154 0 01.729-1.61c.233-.21.506-.371.802-.472a.27.27 0 00.19-.264v-.165a.582.582 0 011.158 0v.123a.27.27 0 00.196.269 2.316 2.316 0 011.482 1.372.61.61 0 010 .441.558.558 0 01-.325.3.575.575 0 01-.741-.337 1.225 1.225 0 00-1.157-.704c-.3-.006-.593.098-.821.294a1.023 1.023 0 00-.343.753c0 .613.845 1.054 1.354 1.256 1.837.71 2.082 1.758 2.082 2.321a2.15 2.15 0 01-.723 1.611c-.235.21-.51.37-.808.472a.288.288 0 00-.184.27v.159a.613.613 0 01-.594.55z" fill="#FDCE6D"/><g filter="url(#filter0_d_71_259)"><path d="M28.304 41.229a8.318 8.318 0 010-16.63 8.56 8.56 0 011.666.184h.055a.294.294 0 00.178-.061.283.283 0 00.104-.22v-1.054a.576.576 0 01.576-.576h.863a.288.288 0 00.282-.282v-1.72a.288.288 0 00-.282-.282h-1.72a.576.576 0 01-.576-.576v-3.436a.576.576 0 01.575-.576h13.757a.576.576 0 01.576.576v2.578a.282.282 0 00.288.282h1.715a.613.613 0 01.582.613v3.436a.613.613 0 01-.582.576h-.833a.281.281 0 00-.282.287v2.579a.576.576 0 01-.576.576h-.864a.288.288 0 00-.281.281v1.722a.288.288 0 00.282.281h.863a.576.576 0 01.576.576v2.579a.276.276 0 00.282.281h.857a.613.613 0 01.582.613v3.436a.613.613 0 01-.582.582h-.857a.278.278 0 00-.262.173.276.276 0 00-.02.109v2.578a.576.576 0 01-.576.576l-16.366-.061zm6.878-3.436a.294.294 0 00-.226.104.295.295 0 01-.055.067.892.892 0 01-.062.08c-.091.11-.183.226-.3.355a.238.238 0 00-.049.061l-.036.043-.117.123-.037.036c-.257.27-.533.522-.826.754l-.043.037-.153.091a.288.288 0 00-.098.319.275.275 0 00.27.19h10.326a.276.276 0 00.282-.282v-1.715a.278.278 0 00-.173-.262.274.274 0 00-.11-.02l-8.593.019zM28.304 25.75a7.16 7.16 0 10.656 14.29l.306-.037h.037l.269-.043c.153 0 .306-.061.453-.098h.123c.183-.05.355-.104.514-.16h.043a7.249 7.249 0 001.948-1.059.11.11 0 00.043 0c.11-.086.22-.178.343-.288l.134-.116.288-.288.166-.178c.092-.098.177-.202.257-.3.161-.195.31-.4.447-.612.123-.196.22-.362.3-.509l.074-.159.037-.074c.085-.183.159-.355.226-.52l.074-.215c.067-.195.128-.392.177-.612v-.049a.892.892 0 01.03-.122c.062-.282.105-.54.136-.79a6.957 6.957 0 00-.006-1.605c0-.098 0-.203-.043-.3-.043-.099 0-.172-.05-.258v-.073a6.776 6.776 0 00-.257-.931 7.972 7.972 0 00-.281-.65l-.055-.122-.11-.22a7.075 7.075 0 00-1.795-2.187 7.223 7.223 0 00-2.052-1.152 7.129 7.129 0 00-2.432-.563zm8.428 8.575a.276.276 0 00-.276.227 8.263 8.263 0 01-.52 1.629v.036a.27.27 0 000 .264.288.288 0 00.239.129h9.353a.288.288 0 00.281-.282v-1.685a.288.288 0 00-.281-.281l-8.796-.037zm0-3.442a.282.282 0 00-.276.343v.104a.677.677 0 000 .11c.014.05.024.102.031.153.018.06.03.122.037.184v.049a.518.518 0 000 .098c.04.319.06.64.061.961a.282.282 0 00.282.282h6.878a.277.277 0 00.282-.282v-1.714a.281.281 0 00-.282-.288h-7.013zm-1.225-2.12c.149.258.282.524.398.797a.282.282 0 00.258.171h5.88a.282.282 0 00.281-.282v-1.72a.281.281 0 00-.282-.282h-6.866a.288.288 0 00-.25.153.282.282 0 00.03.3c.193.259.37.529.533.808l.018.055zm-3.062-3.099l.042.037c.284.159.556.337.815.533.05.036.11.055.172.055h10.32a.275.275 0 00.282-.282v-1.715a.282.282 0 00-.282-.288H31.746a.28.28 0 00-.281.288v.723a.282.282 0 00.165.257h.055l.08.043.067.03c.22.148.41.24.6.344l.013-.025zm1.035-5.096a.28.28 0 00-.282.282v1.721a.281.281 0 00.282.282h12.048a.288.288 0 00.281-.282V20.85a.288.288 0 00-.281-.282H33.48zm-2.585-3.442a.288.288 0 00-.282.282v1.72a.283.283 0 00.282.283h12.042a.282.282 0 00.282-.282v-1.697a.288.288 0 00-.282-.282l-12.042-.024z" fill="#FDCE6D"/></g><path d="M25.725 22.315a.612.612 0 01-.575-.613v-1.715a.576.576 0 111.151 0v1.715a.612.612 0 01-.576.613zm-4.299 2.578a.557.557 0 01-.405-.171l-.863-.858a.612.612 0 010-.82.613.613 0 01.82 0l.858.863a.576.576 0 01-.41.986z" fill="#FDCE6D"/><defs><filter id="filter0_d_71_259" x=".212" y="0" width="66.755" height="65.29" filterUnits="userSpaceOnUse" color-interpolation-filters="sRGB"><feFlood flood-opacity="0" result="BackgroundImageFix"/><feColorMatrix in="SourceAlpha" values="0 0 0 0 0 0 0 0 0 0 0 0 0 0 0 0 0 0 127 0" result="hardAlpha"/><feOffset dy="4"/><feGaussianBlur stdDeviation="10"/><feComposite in2="hardAlpha" operator="out"/><feColorMatrix values="0 0 0 0 0.658824 0 0 0 0 0.968627 0 0 0 0 1 0 0 0 1 0"/><feBlend in2="BackgroundImageFix" result="effect1_dropShadow_71_259"/><feBlend in="SourceGraphic" in2="effect1_dropShadow_71_259" result="shape"/></filter></defs></svg>