<svg width="244" height="344" fill="none" xmlns="http://www.w3.org/2000/svg"><path d="M238.172 141.135c-5.005 14.729-12.822 26.808-23.451 36.239-10.478 9.481-26.911 17.617-49.299 24.406l-21.502 6.667c-24.818 7.488-40.649 19.808-47.49 36.962l-60.585-20.588c4.114-10.12 9.483-18.966 16.106-26.54 6.623-7.573 14.655-14.075 24.093-19.506 9.59-5.379 20.565-9.865 32.922-13.457 13.472-3.891 24.416-7.794 32.834-11.708 8.62-4.016 15.374-8.496 20.26-13.441 4.939-5.097 8.595-11.138 10.968-18.123 4.541-13.362 3.74-25.406-2.402-36.132-5.991-10.674-17.004-18.736-33.039-24.185-15.278-5.192-29.659-5.082-43.14.33-13.332 5.463-23.408 15.25-30.228 29.363L.479 66.712C15.037 37.276 35.821 17.577 62.83 7.615c27.01-9.962 57.456-9.185 91.342 2.33 35.851 12.184 61.202 29.945 76.051 53.284 15.051 23.239 17.701 49.207 7.948 77.906zM87.532 282.02l-20.898 61.498-65.577-22.285 20.898-61.497 65.577 22.284z" fill="#fff" fill-opacity=".1"/></svg>